<svg xmlns="http://www.w3.org/2000/svg" width="24" height="96"><svg id="calendar" viewBox="0 0 24 24"><path d="M22 2.25h-3.25V.75a.749.749 0 1 0-1.5 0v1.5h-4.5V.75a.75.75 0 1 0-1.5 0v1.5h-4.5V.75a.75.75 0 1 0-1.5 0v1.5H2a2 2 0 0 0-2 2V22a2 2 0 0 0 2 2h20a1.999 1.999 0 0 0 1.999-2V4.25a1.999 1.999 0 0 0-2-1.999zM22.5 22a.5.5 0 0 1-.5.5H2a.5.5 0 0 1-.5-.5V4.25a.5.5 0 0 1 .5-.5h3.25v1.5a.75.75 0 1 0 1.5 0v-1.5h4.5v1.5a.75.75 0 1 0 1.5 0v-1.5h4.5v1.5a.749.749 0 1 0 1.5 0v-1.5H22a.5.5 0 0 1 .5.5V22zM5.25 9h3v2.25h-3zm0 3.75h3V15h-3zm0 3.75h3v2.25h-3zm5.25 0h3v2.25h-3zm0-3.75h3V15h-3zm0-3.75h3v2.25h-3zm5.25 7.5h3v2.25h-3zm0-3.75h3V15h-3zm0-3.75h3v2.25h-3z"/></svg><svg id="insta" viewBox="0 0 21 24"><path d="M13.714 12c0-1.888-1.54-3.429-3.429-3.429S6.856 10.111 6.856 12s1.54 3.429 3.429 3.429 3.429-1.54 3.429-3.429zm1.849 0c0 2.92-2.357 5.277-5.277 5.277S5.009 14.92 5.009 12s2.357-5.277 5.277-5.277S15.563 9.08 15.563 12zm1.446-5.491c0 .683-.549 1.232-1.232 1.232s-1.232-.549-1.232-1.232.549-1.232 1.232-1.232 1.232.549 1.232 1.232zm-6.723-2.946c-1.5 0-4.714-.121-6.067.415-.469.188-.817.415-1.179.777s-.589.71-.777 1.179c-.536 1.353-.415 4.567-.415 6.067s-.121 4.714.415 6.067c.188.469.415.817.777 1.179s.71.589 1.179.777c1.353.536 4.567.415 6.067.415s4.714.121 6.067-.415c.469-.188.817-.415 1.179-.777s.589-.71.777-1.179c.536-1.353.415-4.567.415-6.067s.121-4.714-.415-6.067c-.188-.469-.415-.817-.777-1.179s-.71-.589-1.179-.777c-1.353-.536-4.567-.415-6.067-.415zM20.571 12c0 1.42.013 2.826-.067 4.246-.08 1.647-.455 3.107-1.661 4.313s-2.665 1.58-4.313 1.661c-1.42.08-2.826.067-4.246.067s-2.826.013-4.246-.067c-1.647-.08-3.107-.455-4.313-1.661S.145 17.894.064 16.246c-.08-1.42-.067-2.826-.067-4.246s-.013-2.826.067-4.246c.08-1.647.455-3.107 1.661-4.313S4.39 1.861 6.038 1.78c1.42-.08 2.826-.067 4.246-.067s2.826-.013 4.246.067c1.647.08 3.107.455 4.313 1.661s1.58 2.665 1.661 4.313c.08 1.42.067 2.826.067 4.246z"/></svg><svg id="fb" viewBox="0 0 14 24"><path d="M12.844.161v3.536h-2.103c-1.647 0-1.955.79-1.955 1.929v2.531h3.924l-.522 3.964H8.786v10.165H4.688V12.121H1.273V8.157h3.415v-2.92C4.688 1.849 6.764 0 9.791 0c1.446 0 2.692.107 3.054.161z"/></svg></svg>