<?xml version="1.0" encoding="utf-8"?>
<!-- Generated by IcoMoon.io -->
<svg version="1.1" xmlns="http://www.w3.org/2000/svg" xmlns:xlink="http://www.w3.org/1999/xlink" width="24" height="96" viewBox="0 0 24 96">
<svg id="calendar" viewBox="0 0 24 24">
<path d="M22 2.25h-3.25v-1.5c0-0.415-0.335-0.75-0.75-0.75s-0.75 0.335-0.75 0.75v1.5h-4.5v-1.5c0-0.415-0.336-0.75-0.75-0.75s-0.75 0.335-0.75 0.75v1.5h-4.5v-1.5c0-0.415-0.336-0.75-0.75-0.75s-0.75 0.335-0.75 0.75v1.5h-3.25c-1.105 0-2 0.895-2 2v17.75c0 1.105 0.895 2 2 2h20c1.105 0 1.999-0.895 1.999-2v-17.75c0-1.105-0.895-1.999-2-1.999zM22.5 22c0 0.276-0.224 0.5-0.5 0.5h-20c-0.276 0-0.5-0.224-0.5-0.5v-17.75c0-0.275 0.224-0.5 0.5-0.5h3.25v1.5c0 0.415 0.336 0.75 0.75 0.75s0.75-0.335 0.75-0.75v-1.5h4.5v1.5c0 0.415 0.336 0.75 0.75 0.75s0.75-0.335 0.75-0.75v-1.5h4.5v1.5c0 0.415 0.335 0.75 0.75 0.75s0.75-0.335 0.75-0.75v-1.5h3.25c0.275 0 0.5 0.224 0.5 0.5v17.75zM5.25 9h3v2.25h-3zM5.25 12.75h3v2.25h-3zM5.25 16.5h3v2.25h-3zM10.5 16.5h3v2.25h-3zM10.5 12.75h3v2.25h-3zM10.5 9h3v2.25h-3zM15.75 16.5h3v2.25h-3zM15.75 12.75h3v2.25h-3zM15.75 9h3v2.25h-3z"></path>
</svg>
<svg id="insta" viewBox="0 0 21 24">
<path d="M13.714 12c0-1.888-1.54-3.429-3.429-3.429s-3.429 1.54-3.429 3.429 1.54 3.429 3.429 3.429 3.429-1.54 3.429-3.429zM15.563 12c0 2.92-2.357 5.277-5.277 5.277s-5.277-2.357-5.277-5.277 2.357-5.277 5.277-5.277 5.277 2.357 5.277 5.277zM17.009 6.509c0 0.683-0.549 1.232-1.232 1.232s-1.232-0.549-1.232-1.232 0.549-1.232 1.232-1.232 1.232 0.549 1.232 1.232zM10.286 3.563c-1.5 0-4.714-0.121-6.067 0.415-0.469 0.188-0.817 0.415-1.179 0.777s-0.589 0.71-0.777 1.179c-0.536 1.353-0.415 4.567-0.415 6.067s-0.121 4.714 0.415 6.067c0.188 0.469 0.415 0.817 0.777 1.179s0.71 0.589 1.179 0.777c1.353 0.536 4.567 0.415 6.067 0.415s4.714 0.121 6.067-0.415c0.469-0.188 0.817-0.415 1.179-0.777s0.589-0.71 0.777-1.179c0.536-1.353 0.415-4.567 0.415-6.067s0.121-4.714-0.415-6.067c-0.188-0.469-0.415-0.817-0.777-1.179s-0.71-0.589-1.179-0.777c-1.353-0.536-4.567-0.415-6.067-0.415zM20.571 12c0 1.42 0.013 2.826-0.067 4.246-0.080 1.647-0.455 3.107-1.661 4.313s-2.665 1.58-4.313 1.661c-1.42 0.080-2.826 0.067-4.246 0.067s-2.826 0.013-4.246-0.067c-1.647-0.080-3.107-0.455-4.313-1.661s-1.58-2.665-1.661-4.313c-0.080-1.42-0.067-2.826-0.067-4.246s-0.013-2.826 0.067-4.246c0.080-1.647 0.455-3.107 1.661-4.313s2.665-1.58 4.313-1.661c1.42-0.080 2.826-0.067 4.246-0.067s2.826-0.013 4.246 0.067c1.647 0.080 3.107 0.455 4.313 1.661s1.58 2.665 1.661 4.313c0.080 1.42 0.067 2.826 0.067 4.246z"></path>
</svg>
<svg id="fb" viewBox="0 0 14 24">
<path d="M12.844 0.161v3.536h-2.103c-1.647 0-1.955 0.79-1.955 1.929v2.531h3.924l-0.522 3.964h-3.402v10.165h-4.098v-10.165h-3.415v-3.964h3.415v-2.92c0-3.388 2.076-5.237 5.103-5.237 1.446 0 2.692 0.107 3.054 0.161z"></path>
</svg>
</svg>

